<?xml version="1.0" standalone="no"?>
<!DOCTYPE svg PUBLIC "-//W3C//DTD SVG 20010904//EN"
 "http://www.w3.org/TR/2001/REC-SVG-20010904/DTD/svg10.dtd">
<svg version="1.0" xmlns="http://www.w3.org/2000/svg"
 width="447.000000pt" height="447.000000pt" viewBox="0 0 447.000000 447.000000"
 preserveAspectRatio="xMidYMid meet">
<metadata>
Created by potrace 1.11, written by Peter Selinger 2001-2013
</metadata>
<g transform="translate(0.000000,447.000000) scale(0.100000,-0.100000)"
fill="#000000" stroke="none">
<path d="M2073 4460 c-301 -64 -546 -306 -609 -599 -21 -99 -18 -272 6 -367
121 -479 650 -723 1095 -505 188 93 345 281 410 491 22 73 31 267 16 356 -47
269 -253 505 -519 597 -77 26 -103 30 -222 33 -74 2 -154 -1 -177 -6z m337
-110 c121 -32 264 -128 346 -232 100 -127 144 -256 144 -423 0 -119 -18 -203
-64 -295 -89 -182 -261 -321 -451 -365 -86 -20 -234 -20 -320 0 -237 55 -444
261 -500 496 -19 82 -19 246 0 328 32 132 127 280 237 367 66 52 169 106 238
124 103 28 266 28 370 0z"/>
<path d="M0 2270 l0 -40 2235 0 2235 0 0 40 0 40 -2235 0 -2235 0 0 -40z"/>
<path d="M2073 1550 c-301 -64 -546 -306 -609 -599 -21 -99 -18 -262 6 -357
56 -220 203 -404 405 -505 128 -63 224 -82 380 -77 111 4 142 9 217 35 259 90
459 312 514 572 18 85 18 247 0 332 -55 260 -256 483 -514 572 -77 26 -103 30
-222 33 -74 2 -154 -1 -177 -6z m337 -110 c121 -32 264 -128 346 -232 100
-127 144 -256 144 -423 0 -119 -18 -203 -64 -295 -89 -182 -261 -321 -451
-365 -86 -20 -234 -20 -320 0 -237 55 -444 261 -500 496 -19 82 -19 246 0 328
32 132 127 280 237 367 66 52 169 106 238 124 103 28 266 28 370 0z"/>
</g>
</svg>
