<svg style="position: absolute; width: 0; height: 0; overflow: hidden;" version="1.1" xmlns="http://www.w3.org/2000/svg" xmlns:xlink="http://www.w3.org/1999/xlink">
<defs>
<symbol id="icon-chevron_left" viewBox="0 0 23 32">
<title>chevron_left</title>
<path class="path1" d="M20.911 5.375l-9.482 9.482 9.482 9.482q0.339 0.339 0.339 0.804t-0.339 0.804l-2.964 2.964q-0.339 0.339-0.804 0.339t-0.804-0.339l-13.25-13.25q-0.339-0.339-0.339-0.804t0.339-0.804l13.25-13.25q0.339-0.339 0.804-0.339t0.804 0.339l2.964 2.964q0.339 0.339 0.339 0.804t-0.339 0.804z"></path>
</symbol>
<symbol id="icon-chevron_right" viewBox="0 0 23 32">
<title>chevron_right</title>
<path class="path1" d="M19.768 15.661l-13.25 13.25q-0.339 0.339-0.804 0.339t-0.804-0.339l-2.964-2.964q-0.339-0.339-0.339-0.804t0.339-0.804l9.482-9.482-9.482-9.482q-0.339-0.339-0.339-0.804t0.339-0.804l2.964-2.964q0.339-0.339 0.804-0.339t0.804 0.339l13.25 13.25q0.339 0.339 0.339 0.804t-0.339 0.804z"></path>
</symbol>
<symbol id="icon-twitter_sign" viewBox="0 0 32 32">
<title>twitter_sign</title>
<path class="path1" d="M22.857 10.893q-1 0.446-2.161 0.607 1.214-0.714 1.661-2.089-1.161 0.679-2.393 0.911-1.089-1.179-2.732-1.179-1.554 0-2.652 1.098t-1.098 2.652q0 0.518 0.089 0.857-2.304-0.125-4.321-1.161t-3.429-2.768q-0.518 0.893-0.518 1.893 0 2.036 1.625 3.125-0.839-0.018-1.786-0.464v0.036q0 1.339 0.893 2.384t2.196 1.295q-0.518 0.143-0.911 0.143-0.232 0-0.696-0.071 0.375 1.125 1.33 1.857t2.17 0.75q-2.071 1.607-4.661 1.607-0.464 0-0.893-0.054 2.643 1.679 5.75 1.679 2 0 3.75-0.634t3-1.696 2.152-2.446 1.339-2.893 0.438-3.009q0-0.321-0.018-0.482 1.125-0.804 1.875-1.946zM27.429 7.429v17.143q0 2.125-1.509 3.634t-3.634 1.509h-17.143q-2.125 0-3.634-1.509t-1.509-3.634v-17.143q0-2.125 1.509-3.634t3.634-1.509h17.143q2.125 0 3.634 1.509t1.509 3.634z"></path>
</symbol>
<symbol id="icon-facebook_sign" viewBox="0 0 32 32">
<title>facebook_sign</title>
<path class="path1" d="M22.286 2.286q2.125 0 3.634 1.509t1.509 3.634v17.143q0 2.125-1.509 3.634t-3.634 1.509h-3.357v-10.625h3.554l0.536-4.143h-4.089v-2.643q0-1 0.42-1.5t1.634-0.5l2.179-0.018v-3.696q-1.125-0.161-3.179-0.161-2.429 0-3.884 1.429t-1.455 4.036v3.054h-3.571v4.143h3.571v10.625h-9.5q-2.125 0-3.634-1.509t-1.509-3.634v-17.143q0-2.125 1.509-3.634t3.634-1.509h17.143z"></path>
</symbol>
<symbol id="icon-double_angle_left" viewBox="0 0 18 32">
<title>double_angle_left</title>
<path class="path1" d="M11.196 24.571q0 0.232-0.179 0.411l-0.893 0.893q-0.179 0.179-0.411 0.179t-0.411-0.179l-8.321-8.321q-0.179-0.179-0.179-0.411t0.179-0.411l8.321-8.321q0.179-0.179 0.411-0.179t0.411 0.179l0.893 0.893q0.179 0.179 0.179 0.411t-0.179 0.411l-7.018 7.018 7.018 7.018q0.179 0.179 0.179 0.411zM18.054 24.571q0 0.232-0.179 0.411l-0.893 0.893q-0.179 0.179-0.411 0.179t-0.411-0.179l-8.321-8.321q-0.179-0.179-0.179-0.411t0.179-0.411l8.321-8.321q0.179-0.179 0.411-0.179t0.411 0.179l0.893 0.893q0.179 0.179 0.179 0.411t-0.179 0.411l-7.018 7.018 7.018 7.018q0.179 0.179 0.179 0.411z"></path>
</symbol>
<symbol id="icon-double_angle_right" viewBox="0 0 18 32">
<title>double_angle_right</title>
<path class="path1" d="M10.625 17.143q0 0.232-0.179 0.411l-8.321 8.321q-0.179 0.179-0.411 0.179t-0.411-0.179l-0.893-0.893q-0.179-0.179-0.179-0.411t0.179-0.411l7.018-7.018-7.018-7.018q-0.179-0.179-0.179-0.411t0.179-0.411l0.893-0.893q0.179-0.179 0.411-0.179t0.411 0.179l8.321 8.321q0.179 0.179 0.179 0.411zM17.482 17.143q0 0.232-0.179 0.411l-8.321 8.321q-0.179 0.179-0.411 0.179t-0.411-0.179l-0.893-0.893q-0.179-0.179-0.179-0.411t0.179-0.411l7.018-7.018-7.018-7.018q-0.179-0.179-0.179-0.411t0.179-0.411l0.893-0.893q0.179-0.179 0.411-0.179t0.411 0.179l8.321 8.321q0.179 0.179 0.179 0.411z"></path>
</symbol>
<symbol id="icon-angle_left" viewBox="0 0 11 32">
<title>angle_left</title>
<path class="path1" d="M11.196 9.714q0 0.232-0.179 0.411l-7.018 7.018 7.018 7.018q0.179 0.179 0.179 0.411t-0.179 0.411l-0.893 0.893q-0.179 0.179-0.411 0.179t-0.411-0.179l-8.321-8.321q-0.179-0.179-0.179-0.411t0.179-0.411l8.321-8.321q0.179-0.179 0.411-0.179t0.411 0.179l0.893 0.893q0.179 0.179 0.179 0.411z"></path>
</symbol>
<symbol id="icon-angle_right" viewBox="0 0 11 32">
<title>angle_right</title>
<path class="path1" d="M10.625 17.143q0 0.232-0.179 0.411l-8.321 8.321q-0.179 0.179-0.411 0.179t-0.411-0.179l-0.893-0.893q-0.179-0.179-0.179-0.411t0.179-0.411l7.018-7.018-7.018-7.018q-0.179-0.179-0.179-0.411t0.179-0.411l0.893-0.893q0.179-0.179 0.411-0.179t0.411 0.179l8.321 8.321q0.179 0.179 0.179 0.411z"></path>
</symbol>
<symbol id="icon-youtube" viewBox="0 0 32 32">
<title>youtube</title>
<path class="path1" d="M17.339 22.214v3.768q0 1.196-0.696 1.196-0.411 0-0.804-0.393v-5.375q0.393-0.393 0.804-0.393 0.696 0 0.696 1.196zM23.375 22.232v0.821h-1.607v-0.821q0-1.214 0.804-1.214t0.804 1.214zM6.125 18.339h1.911v-1.679h-5.571v1.679h1.875v10.161h1.786v-10.161zM11.268 28.5h1.589v-8.821h-1.589v6.75q-0.536 0.75-1.018 0.75-0.321 0-0.375-0.375-0.018-0.054-0.018-0.625v-6.5h-1.589v6.982q0 0.875 0.143 1.304 0.214 0.661 1.036 0.661 0.857 0 1.821-1.089v0.964zM18.929 25.857v-3.518q0-1.304-0.161-1.768-0.304-1-1.268-1-0.893 0-1.661 0.964v-3.875h-1.589v11.839h1.589v-0.857q0.804 0.982 1.661 0.982 0.964 0 1.268-0.982 0.161-0.482 0.161-1.786zM24.964 25.679v-0.232h-1.625q0 0.911-0.036 1.089-0.125 0.643-0.714 0.643-0.821 0-0.821-1.232v-1.554h3.196v-1.839q0-1.411-0.482-2.071-0.696-0.911-1.893-0.911-1.214 0-1.911 0.911-0.5 0.661-0.5 2.071v3.089q0 1.411 0.518 2.071 0.696 0.911 1.929 0.911 1.286 0 1.929-0.946 0.321-0.482 0.375-0.964 0.036-0.161 0.036-1.036zM14.107 9.375v-3.75q0-1.232-0.768-1.232t-0.768 1.232v3.75q0 1.25 0.768 1.25t0.768-1.25zM26.946 22.786q0 4.179-0.464 6.25-0.25 1.054-1.036 1.768t-1.821 0.821q-3.286 0.375-9.911 0.375t-9.911-0.375q-1.036-0.107-1.83-0.821t-1.027-1.768q-0.464-2-0.464-6.25 0-4.179 0.464-6.25 0.25-1.054 1.036-1.768t1.839-0.839q3.268-0.357 9.893-0.357t9.911 0.357q1.036 0.125 1.83 0.839t1.027 1.768q0.464 2 0.464 6.25zM9.125 0h1.821l-2.161 7.125v4.839h-1.786v-4.839q-0.25-1.321-1.089-3.786-0.661-1.839-1.161-3.339h1.893l1.268 4.696zM15.732 5.946v3.125q0 1.446-0.5 2.107-0.679 0.911-1.893 0.911-1.196 0-1.875-0.911-0.5-0.679-0.5-2.107v-3.125q0-1.429 0.5-2.089 0.679-0.911 1.875-0.911 1.214 0 1.893 0.911 0.5 0.661 0.5 2.089zM21.714 3.054v8.911h-1.625v-0.982q-0.946 1.107-1.839 1.107-0.821 0-1.054-0.661-0.143-0.429-0.143-1.339v-7.036h1.625v6.554q0 0.589 0.018 0.625 0.054 0.393 0.375 0.393 0.482 0 1.018-0.768v-6.804h1.625z"></path>
</symbol>
<symbol id="icon-vimeo_square" viewBox="0 0 32 32">
<title>vimeo_square</title>
<path class="path1" d="M23.071 11.393q0.179-3.857-2.875-3.964-4.125-0.143-5.571 4.661 0.786-0.339 1.464-0.339 1.518 0 1.321 1.714-0.071 1.018-1.321 2.982t-1.875 1.964q-0.768 0-1.464-3.018-0.232-0.964-0.804-4.554-0.536-3.375-2.857-3.161-1.054 0.125-2.929 1.786l-2.893 2.571 0.929 1.196q1.357-0.929 1.554-0.929 1.018 0 1.911 3.196 0.268 0.982 0.804 2.938t0.804 2.938q1.214 3.196 2.929 3.196 2.804 0 6.839-5.25 3.929-5.054 4.036-7.929zM27.429 7.429v17.143q0 2.125-1.509 3.634t-3.634 1.509h-17.143q-2.125 0-3.634-1.509t-1.509-3.634v-17.143q0-2.125 1.509-3.634t3.634-1.509h17.143q2.125 0 3.634 1.509t1.509 3.634z"></path>
</symbol>
<symbol id="icon-facebook_square" viewBox="0 0 32 32">
<title>_525</title>
<path class="path1" d="M25.911 2.286q0.625 0 1.071 0.446t0.446 1.071v24.393q0 0.625-0.446 1.071t-1.071 0.446h-6.982v-10.625h3.554l0.536-4.143h-4.089v-2.643q0-1 0.42-1.5t1.634-0.5l2.179-0.018v-3.696q-1.125-0.161-3.179-0.161-2.429 0-3.884 1.429t-1.455 4.036v3.054h-3.571v4.143h3.571v10.625h-13.125q-0.625 0-1.071-0.446t-0.446-1.071v-24.393q0-0.625 0.446-1.071t1.071-0.446h24.393z"></path>
</symbol>
<symbol id="icon-pinterest" viewBox="0 0 23 32">
<title>_526</title>
<path class="path1" d="M0 10.661q0-1.929 0.67-3.634t1.848-2.973 2.714-2.196 3.304-1.393 3.607-0.464q2.821 0 5.25 1.188t3.946 3.455 1.518 5.125q0 1.714-0.339 3.357t-1.071 3.161-1.786 2.67-2.589 1.839-3.375 0.688q-1.214 0-2.411-0.571t-1.714-1.571q-0.179 0.696-0.5 2.009t-0.42 1.696-0.366 1.268-0.464 1.268-0.571 1.116-0.821 1.384-1.107 1.545l-0.25 0.089-0.161-0.179q-0.268-2.804-0.268-3.357 0-1.643 0.384-3.688t1.188-5.134 0.929-3.625q-0.571-1.161-0.571-3.018 0-1.482 0.929-2.786t2.357-1.304q1.089 0 1.696 0.723t0.607 1.83q0 1.179-0.786 3.411t-0.786 3.339q0 1.125 0.804 1.866t1.946 0.741q0.982 0 1.821-0.446t1.402-1.214 1-1.696 0.679-1.973 0.357-1.982 0.116-1.777q0-3.089-1.955-4.813t-5.098-1.723q-3.571 0-5.964 2.313t-2.393 5.866q0 0.786 0.223 1.518t0.482 1.161 0.482 0.813 0.223 0.545q0 0.5-0.268 1.304t-0.661 0.804q-0.036 0-0.304-0.054-0.911-0.268-1.616-1t-1.089-1.688-0.58-1.929-0.196-1.902z"></path>
</symbol>
<symbol id="icon-align_justify" viewBox="0 0 32 32">
<title>align_justify</title>
<path class="path1" d="M32 24v2.286q0 0.464-0.339 0.804t-0.804 0.339h-29.714q-0.464 0-0.804-0.339t-0.339-0.804v-2.286q0-0.464 0.339-0.804t0.804-0.339h29.714q0.464 0 0.804 0.339t0.339 0.804zM32 17.143v2.286q0 0.464-0.339 0.804t-0.804 0.339h-29.714q-0.464 0-0.804-0.339t-0.339-0.804v-2.286q0-0.464 0.339-0.804t0.804-0.339h29.714q0.464 0 0.804 0.339t0.339 0.804zM32 10.286v2.286q0 0.464-0.339 0.804t-0.804 0.339h-29.714q-0.464 0-0.804-0.339t-0.339-0.804v-2.286q0-0.464 0.339-0.804t0.804-0.339h29.714q0.464 0 0.804 0.339t0.339 0.804zM32 3.429v2.286q0 0.464-0.339 0.804t-0.804 0.339h-29.714q-0.464 0-0.804-0.339t-0.339-0.804v-2.286q0-0.464 0.339-0.804t0.804-0.339h29.714q0.464 0 0.804 0.339t0.339 0.804z"></path>
</symbol>
<symbol id="icon-reorder" viewBox="0 0 32 32">
<title>reorder</title>
<path class="path1" d="M27.429 24v2.286q0 0.464-0.339 0.804t-0.804 0.339h-25.143q-0.464 0-0.804-0.339t-0.339-0.804v-2.286q0-0.464 0.339-0.804t0.804-0.339h25.143q0.464 0 0.804 0.339t0.339 0.804zM27.429 14.857v2.286q0 0.464-0.339 0.804t-0.804 0.339h-25.143q-0.464 0-0.804-0.339t-0.339-0.804v-2.286q0-0.464 0.339-0.804t0.804-0.339h25.143q0.464 0 0.804 0.339t0.339 0.804zM27.429 5.714v2.286q0 0.464-0.339 0.804t-0.804 0.339h-25.143q-0.464 0-0.804-0.339t-0.339-0.804v-2.286q0-0.464 0.339-0.804t0.804-0.339h25.143q0.464 0 0.804 0.339t0.339 0.804z"></path>
</symbol>
<symbol id="icon-envelope_alt" viewBox="0 0 32 32">
<title>envelope_alt</title>
<path class="path1" d="M32 12.679v14.179q0 1.179-0.839 2.018t-2.018 0.839h-26.286q-1.179 0-2.018-0.839t-0.839-2.018v-14.179q0.786 0.875 1.804 1.554 6.464 4.393 8.875 6.161 1.018 0.75 1.652 1.17t1.688 0.857 1.964 0.438h0.036q0.911 0 1.964-0.438t1.688-0.857 1.652-1.17q3.036-2.196 8.893-6.161 1.018-0.696 1.786-1.554zM32 7.429q0 1.411-0.875 2.696t-2.179 2.196q-6.714 4.661-8.357 5.804-0.179 0.125-0.759 0.545t-0.964 0.679-0.929 0.58-1.027 0.482-0.893 0.161h-0.036q-0.411 0-0.893-0.161t-1.027-0.482-0.929-0.58-0.964-0.679-0.759-0.545q-1.625-1.143-4.679-3.259t-3.661-2.545q-1.107-0.75-2.089-2.063t-0.982-2.438q0-1.393 0.741-2.321t2.116-0.929h26.286q1.161 0 2.009 0.839t0.848 2.018z"></path>
</symbol>
<symbol id="icon-soundcloud" viewBox="0 0 41 32">
<title>_419</title>
<path class="path1" d="M14 24.5l0.286-4.304-0.286-9.339q-0.018-0.179-0.134-0.304t-0.295-0.125q-0.161 0-0.286 0.125t-0.125 0.304l-0.25 9.339 0.25 4.304q0.018 0.179 0.134 0.295t0.277 0.116q0.393 0 0.429-0.411zM19.286 23.982l0.196-3.768-0.214-10.464q0-0.286-0.232-0.429-0.143-0.089-0.286-0.089t-0.286 0.089q-0.232 0.143-0.232 0.429l-0.018 0.107-0.179 10.339q0 0.018 0.196 4.214v0.018q0 0.179 0.107 0.304 0.161 0.196 0.411 0.196 0.196 0 0.357-0.161 0.161-0.125 0.161-0.357zM0.625 17.911l0.357 2.286-0.357 2.25q-0.036 0.161-0.161 0.161t-0.161-0.161l-0.304-2.25 0.304-2.286q0.036-0.161 0.161-0.161t0.161 0.161zM2.161 16.5l0.464 3.696-0.464 3.625q-0.036 0.161-0.179 0.161-0.161 0-0.161-0.179l-0.411-3.607 0.411-3.696q0-0.161 0.161-0.161 0.143 0 0.179 0.161zM3.804 15.821l0.446 4.375-0.446 4.232q0 0.196-0.196 0.196-0.179 0-0.214-0.196l-0.375-4.232 0.375-4.375q0.036-0.214 0.214-0.214 0.196 0 0.196 0.214zM5.482 15.696l0.411 4.5-0.411 4.357q-0.036 0.232-0.25 0.232-0.232 0-0.232-0.232l-0.375-4.357 0.375-4.5q0-0.232 0.232-0.232 0.214 0 0.25 0.232zM7.161 16.018l0.375 4.179-0.375 4.393q-0.036 0.286-0.286 0.286-0.107 0-0.188-0.080t-0.080-0.205l-0.357-4.393 0.357-4.179q0-0.107 0.080-0.188t0.188-0.080q0.25 0 0.286 0.268zM8.839 13.411l0.375 6.786-0.375 4.393q0 0.125-0.089 0.223t-0.214 0.098q-0.286 0-0.321-0.321l-0.321-4.393 0.321-6.786q0.036-0.321 0.321-0.321 0.125 0 0.214 0.098t0.089 0.223zM10.518 11.875l0.339 8.357-0.339 4.357q0 0.143-0.098 0.241t-0.241 0.098q-0.321 0-0.357-0.339l-0.286-4.357 0.286-8.357q0.036-0.339 0.357-0.339 0.143 0 0.241 0.098t0.098 0.241zM12.268 11.161l0.321 9.036-0.321 4.321q-0.036 0.375-0.393 0.375-0.339 0-0.375-0.375l-0.286-4.321 0.286-9.036q0-0.161 0.116-0.277t0.259-0.116q0.161 0 0.268 0.116t0.125 0.277zM19.268 24.411v0 0 0zM15.732 11.089l0.268 9.107-0.268 4.268q0 0.179-0.134 0.313t-0.313 0.134-0.304-0.125-0.143-0.321l-0.25-4.268 0.25-9.107q0-0.196 0.134-0.321t0.313-0.125 0.313 0.125 0.134 0.321zM17.5 11.429l0.25 8.786-0.25 4.214q0 0.196-0.143 0.339t-0.339 0.143-0.339-0.143-0.161-0.339l-0.214-4.214 0.214-8.786q0.018-0.214 0.161-0.357t0.339-0.143 0.33 0.143 0.152 0.357zM21.286 20.214l-0.25 4.125q0 0.232-0.161 0.393t-0.393 0.161-0.393-0.161-0.179-0.393l-0.107-2.036-0.107-2.089 0.214-11.357v-0.054q0.036-0.268 0.214-0.429 0.161-0.125 0.357-0.125 0.143 0 0.268 0.089 0.25 0.143 0.286 0.464zM41.143 19.875q0 2.089-1.482 3.563t-3.571 1.473h-14.036q-0.232-0.036-0.393-0.196t-0.161-0.393v-16.054q0-0.411 0.5-0.589 1.518-0.607 3.232-0.607 3.482 0 6.036 2.348t2.857 5.777q0.946-0.393 1.964-0.393 2.089 0 3.571 1.482t1.482 3.589z"></path>
</symbol>
<symbol id="icon-download_alt" viewBox="0 0 41 32">
<title>download_alt</title>
<path d="M22.857 24q0-0.464-0.339-0.804t-0.804-0.339-0.804 0.339-0.339 0.804 0.339 0.804 0.804 0.339 0.804-0.339 0.339-0.804zM27.429 24q0-0.464-0.339-0.804t-0.804-0.339-0.804 0.339-0.339 0.804 0.339 0.804 0.804 0.339 0.804-0.339 0.339-0.804zM29.714 20v5.714q0 0.714-0.5 1.214t-1.214 0.5h-26.286q-0.714 0-1.214-0.5t-0.5-1.214v-5.714q0-0.714 0.5-1.214t1.214-0.5h8.304l2.411 2.429q1.036 1 2.429 1t2.429-1l2.429-2.429h8.286q0.714 0 1.214 0.5t0.5 1.214zM23.911 9.839q0.304 0.732-0.25 1.25l-8 8q-0.321 0.339-0.804 0.339t-0.804-0.339l-8-8q-0.554-0.518-0.25-1.25 0.304-0.696 1.054-0.696h4.571v-8q0-0.464 0.339-0.804t0.804-0.339h4.571q0.464 0 0.804 0.339t0.339 0.804v8h4.571q0.75 0 1.054 0.696z"></path>
	</symbol>
<symbol id="icon-instagram" viewBox="0 0 41 32">
<title>instagram</title>
<path d="M18.286 16q0-1.893-1.339-3.232t-3.232-1.339-3.232 1.339-1.339 3.232 1.339 3.232 3.232 1.339 3.232-1.339 1.339-3.232zM20.75 16q0 2.929-2.054 4.982t-4.982 2.054-4.982-2.054-2.054-4.982 2.054-4.982 4.982-2.054 4.982 2.054 2.054 4.982zM22.679 8.679q0 0.679-0.482 1.161t-1.161 0.482-1.161-0.482-0.482-1.161 0.482-1.161 1.161-0.482 1.161 0.482 0.482 1.161zM13.714 4.75q-0.125 0-1.366-0.009t-1.884 0-1.723 0.054-1.839 0.179-1.277 0.33q-0.893 0.357-1.571 1.036t-1.036 1.571q-0.196 0.518-0.33 1.277t-0.179 1.839-0.054 1.723 0 1.884 0.009 1.366-0.009 1.366 0 1.884 0.054 1.723 0.179 1.839 0.33 1.277q0.357 0.893 1.036 1.571t1.571 1.036q0.518 0.196 1.277 0.33t1.839 0.179 1.723 0.054 1.884 0 1.366-0.009 1.366 0.009 1.884 0 1.723-0.054 1.839-0.179 1.277-0.33q0.893-0.357 1.571-1.036t1.036-1.571q0.196-0.518 0.33-1.277t0.179-1.839 0.054-1.723 0-1.884-0.009-1.366 0.009-1.366 0-1.884-0.054-1.723-0.179-1.839-0.33-1.277q-0.357-0.893-1.036-1.571t-1.571-1.036q-0.518-0.196-1.277-0.33t-1.839-0.179-1.723-0.054-1.884 0-1.366 0.009zM27.429 16q0 4.089-0.089 5.661-0.179 3.714-2.214 5.75t-5.75 2.214q-1.571 0.089-5.661 0.089t-5.661-0.089q-3.714-0.179-5.75-2.214t-2.214-5.75q-0.089-1.571-0.089-5.661t0.089-5.661q0.179-3.714 2.214-5.75t5.75-2.214q1.571-0.089 5.661-0.089t5.661 0.089q3.714 0.179 5.75 2.214t2.214 5.75q0.089 1.571 0.089 5.661z"></path>
</symbol>
</defs>
</svg>
